<svg width="1920" height="1080" viewBox="0 0 1920 1080" fill="none" xmlns="http://www.w3.org/2000/svg">
<rect width="1920" height="1080" fill="#EA580C"/>
<rect x="116" y="113" width="71" height="71" fill="#9A3412"/>
<rect x="270" y="113" width="71" height="71" fill="#9A3412"/>
<rect x="424" y="113" width="71" height="71" fill="#9A3412"/>
<rect x="578" y="113" width="71" height="71" fill="#9A3412"/>
<rect x="116" y="267" width="71" height="71" fill="#9A3412"/>
<rect x="270" y="267" width="71" height="71" fill="#9A3412"/>
<rect x="424" y="267" width="71" height="71" fill="#9A3412"/>
<rect x="578" y="267" width="71" height="71" fill="#9A3412"/>
<rect x="116" y="421" width="71" height="71" fill="#9A3412"/>
<rect x="270" y="421" width="71" height="71" fill="#9A3412"/>
<rect x="424" y="421" width="71" height="71" fill="#9A3412"/>
<rect x="578" y="421" width="71" height="71" fill="#9A3412"/>
<rect x="116" y="575" width="71" height="71" fill="#9A3412"/>
<rect x="270" y="575" width="71" height="71" fill="#9A3412"/>
<rect x="424" y="575" width="71" height="71" fill="#9A3412"/>
<rect x="578" y="575" width="71" height="71" fill="#9A3412"/>
<rect x="116" y="729" width="71" height="71" fill="#9A3412"/>
<rect x="270" y="729" width="71" height="71" fill="#9A3412"/>
<rect x="424" y="729" width="71" height="71" fill="#9A3412"/>
<rect x="578" y="729" width="71" height="71" fill="#9A3412"/>
<rect x="1262" y="113" width="71" height="71" fill="#9A3412"/>
<rect x="1416" y="113" width="71" height="71" fill="#9A3412"/>
<rect x="1570" y="113" width="71" height="71" fill="#9A3412"/>
<rect x="1724" y="113" width="71" height="71" fill="#9A3412"/>
<rect x="1262" y="267" width="71" height="71" fill="#9A3412"/>
<rect x="1416" y="267" width="71" height="71" fill="#9A3412"/>
<rect x="1570" y="267" width="71" height="71" fill="#9A3412"/>
<rect x="1724" y="267" width="71" height="71" fill="#9A3412"/>
<rect x="1262" y="421" width="71" height="71" fill="#9A3412"/>
<rect x="1416" y="421" width="71" height="71" fill="#9A3412"/>
<rect x="1570" y="421" width="71" height="71" fill="#9A3412"/>
<rect x="1724" y="421" width="71" height="71" fill="#9A3412"/>
<rect x="1262" y="575" width="71" height="71" fill="#9A3412"/>
<rect x="1416" y="575" width="71" height="71" fill="#9A3412"/>
<rect x="1570" y="575" width="71" height="71" fill="#9A3412"/>
<rect x="1724" y="575" width="71" height="71" fill="#9A3412"/>
<rect x="1262" y="729" width="71" height="71" fill="#9A3412"/>
<rect x="1416" y="729" width="71" height="71" fill="#9A3412"/>
<rect x="1570" y="729" width="71" height="71" fill="#9A3412"/>
<rect x="1724" y="729" width="71" height="71" fill="#9A3412"/>
<rect x="762" y="113" width="395" height="687" fill="#9A3412"/>
</svg>
